<?xml version="1.0" encoding="UTF-8" standalone="no"?>
<!-- Created with Inkscape (http://www.inkscape.org/) -->

<svg
   version="1.1"
   id="svg2"
   width="156.78015"
   height="178.96899"
   viewBox="0 0 156.78015 178.96899"
   xmlns="http://www.w3.org/2000/svg"
   xmlns:svg="http://www.w3.org/2000/svg">
  <defs
     id="defs6" />
  <g
     id="g8"
     transform="translate(-20.165712,-11.409613)">
    <path
       d="m 52.414306,189.74865 c -7.171159,-0.45897 -12.872823,-1.29986 -13.75,-2.02785 -0.839907,-0.69706 -1.498594,-2.87847 -1.498594,-4.96299 0,-3.4976 -0.248357,-3.79367 -4.167141,-4.96777 -5.912003,-1.77128 -9.832859,-5.98084 -9.832859,-10.55689 0,-4.89404 1.555318,-7.51118 4.463755,-7.51118 3.036982,0 5.536245,2.46685 5.536245,5.46444 0,1.91996 1.636719,3.53556 3.581787,3.53556 0.230017,0 0.418213,-2.83167 0.418213,-6.2926 v -6.29259 l -4.360211,-1.16618 c -6.217383,-1.6629 -11.055481,-7.2996 -10.293846,-11.993 0.710617,-4.37902 2.286587,-6.25563 5.253449,-6.25563 2.512264,0 6.02396,4.18238 4.958796,5.90585 -0.540613,0.87473 2.273902,3.09415 3.923788,3.09415 0.337402,0 0.479486,-2.7973 0.315741,-6.21622 l -0.297717,-6.21622 -3.79555,-0.89389 c -2.087553,-0.49164 -5.350053,-2.35998 -7.25,-4.15186 -2.814042,-2.65398 -3.45445,-3.99523 -3.45445,-7.2349 0,-5.26186 2.848425,-8.07622 6.780282,-6.69918 1.789754,0.62682 2.837965,1.80047 3.065536,3.43239 0.41891,3.00403 1.917354,4.97988 3.776627,4.97988 1.013623,0 1.377555,-1.55079 1.377555,-5.87004 v -5.87004 l -4.573662,-1.28054 c -8.113973,-2.27178 -12.832141,-9.17126 -10.357388,-15.145851 2.272174,-5.485512 9.93105,-4.107935 9.93105,1.786265 0,1.953762 2.456382,4.380206 4.434259,4.380206 0.311157,0 0.565741,-2.92501 0.565741,-6.50001 0,-5.875648 -0.195935,-6.5 -2.039838,-6.5 -3.049759,0 -9.48887,-3.585391 -11.865636,-6.606959 -2.68873,-3.418167 -2.733006,-8.754561 -0.09453,-11.393041 1.1,-1.1 2.479584,-2 3.065741,-2 2.474047,0 4.934259,2.22562 4.934259,4.463755 0,2.661127 2.374064,5.536245 4.571429,5.536245 1.078338,0 1.428571,-1.461527 1.428571,-5.961456 v -5.961456 l -3.75,-1.026296 C 22.239693,61.714112 16.913187,51.880417 23.301132,46.099407 c 2.888193,-2.613779 7.251749,-0.834519 7.703065,3.140958 0.401542,3.537032 1.522016,5.0811 4.194274,5.779911 1.800081,0.470731 1.967241,-0.01229 1.967241,-5.684531 V 43.13677 L 32.51035,41.89165 C 26.799992,40.364362 20.165712,34.191027 20.165712,30.404707 c 0,-6.853852 4.028185,-10.20475 8.637092,-7.184878 1.936985,1.269161 2.398715,2.223328 1.946938,4.023353 -0.434701,1.731984 3.1e-5,2.774463 1.634377,3.919203 4.25793,2.98237 4.781593,2.189425 4.781593,-7.240425 0,-5.455489 0.450939,-9.250939 1.186501,-9.986501 0.886495,-0.886495 8.408753,-1.045753 29.75,-0.629853 17.534876,0.341722 42.849527,0.0028 65.563497,-0.877747 20.35,-0.788918 37.59697,-1.209112 38.3266,-0.933763 2.66563,1.005954 3.17302,5.839402 3.1537,30.042964 -0.0108,13.576695 0.51501,46.5099 1.16853,73.18491 1.28841,52.58915 0.67709,70.60266 -2.504,73.78374 -1.52863,1.52863 -6.55417,1.69678 -55.41296,1.85408 -29.552526,0.0951 -59.245001,-0.17987 -65.983274,-0.61114 z M 165.62299,179.59892 c 1.5913,-1.59359 1.77731,-22.8919 0.67547,-77.34176 -0.65705,-32.469363 -1.44264,-63.9852 -1.74575,-70.0352 l -0.55111,-11 -19.16795,0.813179 c -10.54237,0.447249 -36.83027,0.897249 -58.41756,1 l -39.249623,0.186821 -3.77e-4,4.012872 c -3.02e-4,3.202547 0.453967,4.212203 2.249622,5 1.541811,0.676429 2.348461,2.007806 2.562823,4.229943 0.256996,2.664101 -0.14454,3.451203 -2.25,4.410515 -2.342881,1.067488 -2.562823,1.691407 -2.562823,7.270057 0,5.36922 0.270315,6.220949 2.25,7.089485 3.364039,1.475884 3.535848,5.926114 0.31038,8.039522 -2.269628,1.487118 -2.56038,2.349478 -2.56038,7.594001 0,4.722005 0.353282,6.04672 1.75,6.562048 3.967974,1.46401 4.314323,5.379367 0.75,8.478506 -2.139749,1.860488 -2.5,3.025829 -2.5,8.087006 0,5.083002 0.282355,5.987125 2.010939,6.439155 1.106016,0.28924 2.299345,1.67499 2.651843,3.07945 0.50339,2.00567 0.07192,3.00726 -2.010939,4.66807 -2.301441,1.83511 -2.651843,2.85413 -2.651843,7.71193 0,4.86711 0.326186,5.81116 2.5,7.23549 1.375,0.90094 2.5,2.49503 2.5,3.54243 0,1.0474 -1.125,2.78929 -2.5,3.87087 -2.098562,1.65073 -2.5,2.80814 -2.5,7.20791 0,4.30632 0.446008,5.65476 2.5,7.55833 1.375,1.27431 2.5,3.0349 2.5,3.91242 0,0.87752 -1.125,2.63811 -2.5,3.91242 -1.989383,1.8437 -2.5,3.28534 -2.5,7.05833 0,3.86644 0.461346,5.1043 2.5,6.70791 1.402179,1.10295 2.5,3.00058 2.5,4.32134 0,1.32076 -1.097821,3.21839 -2.5,4.32134 -4.078426,3.20809 -3.06769,4.06748 5.25,4.46386 12.948687,0.61707 110.040958,0.25903 110.707278,-0.40825 z M 65.915712,154.64187 c -1.463621,-0.85248 -1.75,-2.50722 -1.75,-10.11178 0,-11.19037 2.457986,-20.11225 7.831359,-28.4259 13.169951,-20.376489 38.579309,-26.327457 60.168639,-14.09173 7.42596,4.20865 15.03013,12.00865 18.36751,18.84052 4.44758,9.10454 6.23997,28.12898 3.07579,32.64648 l -1.55671,2.22251 -42.19329,-0.0304 c -26.79336,-0.0193 -42.832022,-0.40243 -43.943298,-1.04969 z m 78.982028,-16.2801 c -1.18573,-15.67802 -11.05991,-27.2033 -26.74993,-31.2229 -12.84844,-3.29161 -26.510213,0.81543 -35.324891,10.61947 -5.132153,5.70819 -7.416957,11.52889 -8.313972,21.18041 l -0.630434,6.78322 h 35.787937 35.78794 z M 101.62851,87.130613 C 88.328815,82.408408 82.604592,68.911113 88.517022,56.214681 94.217342,43.973735 107.00823,39.486838 118.84732,45.575162 c 10.42053,5.358824 15.35305,17.948069 11.05887,28.22549 -4.94544,11.836093 -16.77696,17.413418 -28.27768,13.329961 z m 11.21047,-9.394998 c 2.32084,-0.02701 7.28745,-5.211865 8.21687,-8.577931 3.50281,-12.686162 -13.50701,-21.415512 -22.612938,-11.604838 -2.173952,2.3422 -2.426809,3.371699 -2.064472,8.405418 0.3091,4.29413 1.011793,6.373785 2.794992,8.271911 2.627088,2.796415 7.395608,4.586051 10.492278,3.937782 1.1,-0.230278 2.52797,-0.424832 3.17327,-0.432342 z"
       id="path847" />
  </g>
</svg>
