<?xml version="1.0" encoding="UTF-8" standalone="no"?>
<svg
   aria-label="stars"
   role="img"
   height="14.162967"
   viewBox="0 0 14.816306 14.162967"
   version="1.1"
   width="14.816306"
   data-view-component="true"
   class="octicon octicon-star"
   id="svg4"
   xmlns="http://www.w3.org/2000/svg"
   xmlns:svg="http://www.w3.org/2000/svg">
  <defs
     id="defs8" />
  <path
     d="M 7.4091,1.569723e-7 A 0.75,0.75 0 0 1 8.0821,0.41800015 l 1.882,3.81500005 4.21,0.612 a 0.75,0.75 0 0 1 0.416,1.279 l -3.046,2.97 0.719,4.1919998 a 0.751,0.751 0 0 1 -1.088,0.791 l -3.766,-1.98 -3.766,1.98 a 0.75,0.75 0 0 1 -1.088,-0.79 l 0.72,-4.1939998 -3.048,-2.969 a 0.75,0.75 0 0 1 0.416,-1.28 l 4.21,-0.611 1.883,-3.81500005 A 0.75,0.75 0 0 1 7.4091,1.569723e-7 Z m 0,2.4450000430277 -1.385,2.805 a 0.75,0.75 0 0 1 -0.564,0.41 l -3.097,0.45 2.24,2.184 a 0.75,0.75 0 0 1 0.216,0.664 L 4.2911,12.042 7.0601,10.586 a 0.75,0.75 0 0 1 0.698,0 l 2.77,1.456 -0.53,-3.0839998 a 0.75,0.75 0 0 1 0.216,-0.664 l 2.24,-2.183 -3.096,-0.45 a 0.75,0.75 0 0 1 -0.564,-0.41 l -1.385,-2.807 z"
     id="path2" />
</svg>
